<svg xmlns="http://www.w3.org/2000/svg" xmlns:xlink="http://www.w3.org/1999/xlink" width="500" zoomAndPan="magnify" viewBox="0 0 375 374.999991" height="500" preserveAspectRatio="xMidYMid meet" version="1.0"><defs><g/><clipPath id="38bc7cc814"><path d="M 154.414062 147 L 165 147 L 165 175 L 154.414062 175 Z M 154.414062 147 " clip-rule="nonzero"/></clipPath><clipPath id="9248ca6d25"><path d="M 168 133.183594 L 218 133.183594 L 218 158 L 168 158 Z M 168 133.183594 " clip-rule="nonzero"/></clipPath><clipPath id="92ce3b1d1a"><path d="M 174.234375 171.722656 L 189.144531 171.722656 L 189.144531 212.683594 L 174.234375 212.683594 Z M 174.234375 171.722656 " clip-rule="nonzero"/></clipPath><clipPath id="8629232f87"><path d="M 178 162 L 197 162 L 197 212.683594 L 178 212.683594 Z M 178 162 " clip-rule="nonzero"/></clipPath><clipPath id="27529ef8f2"><path d="M 170 152 L 216 152 L 216 212.683594 L 170 212.683594 Z M 170 152 " clip-rule="nonzero"/></clipPath><clipPath id="c26852fc2e"><path d="M 216.070312 159.050781 L 220.414062 159.050781 L 220.414062 174.226562 L 216.070312 174.226562 Z M 216.070312 159.050781 " clip-rule="nonzero"/></clipPath></defs><g fill="#000000" fill-opacity="1"><g transform="translate(128.35797, 236.880892)"><g><path d="M 7.34375 -5.109375 L 7.34375 0 L 4.75 0 L 4.75 -5.109375 L 0.3125 -12.453125 L 3.046875 -12.453125 L 6.03125 -7.1875 L 9.0625 -12.453125 L 11.78125 -12.453125 Z M 7.34375 -5.109375 "/></g></g></g><g fill="#000000" fill-opacity="1"><g transform="translate(142.263538, 236.880892)"><g><path d="M 13.328125 -6.28125 C 13.328125 -4.988281 13.066406 -3.847656 12.546875 -2.859375 C 12.035156 -1.878906 11.300781 -1.128906 10.34375 -0.609375 C 9.394531 -0.0859375 8.285156 0.171875 7.015625 0.171875 C 5.054688 0.171875 3.519531 -0.398438 2.40625 -1.546875 C 1.300781 -2.703125 0.75 -4.28125 0.75 -6.28125 C 0.75 -8.28125 1.300781 -9.835938 2.40625 -10.953125 C 3.507812 -12.078125 5.050781 -12.640625 7.03125 -12.640625 C 9 -12.640625 10.539062 -12.070312 11.65625 -10.9375 C 12.769531 -9.8125 13.328125 -8.257812 13.328125 -6.28125 Z M 10.65625 -6.28125 C 10.65625 -7.625 10.335938 -8.675781 9.703125 -9.4375 C 9.066406 -10.207031 8.175781 -10.59375 7.03125 -10.59375 C 5.863281 -10.59375 4.960938 -10.210938 4.328125 -9.453125 C 3.691406 -8.703125 3.375 -7.644531 3.375 -6.28125 C 3.375 -4.914062 3.695312 -3.835938 4.34375 -3.046875 C 5 -2.265625 5.890625 -1.875 7.015625 -1.875 C 8.179688 -1.875 9.078125 -2.253906 9.703125 -3.015625 C 10.335938 -3.785156 10.65625 -4.875 10.65625 -6.28125 Z M 10.65625 -6.28125 "/></g></g></g><g fill="#000000" fill-opacity="1"><g transform="translate(158.175919, 236.880892)"><g><path d="M 1.21875 0 L 1.21875 -12.453125 L 11.015625 -12.453125 L 11.015625 -10.4375 L 3.8125 -10.4375 L 3.8125 -7.3125 L 10.46875 -7.3125 L 10.46875 -5.296875 L 3.8125 -5.296875 L 3.8125 -2.015625 L 11.375 -2.015625 L 11.375 0 Z M 1.21875 0 "/></g></g></g><g fill="#000000" fill-opacity="1"><g transform="translate(172.081488, 236.880892)"><g><path d="M 1.21875 0 L 1.21875 -12.453125 L 3.8125 -12.453125 L 3.8125 -2.015625 L 10.5 -2.015625 L 10.5 0 Z M 1.21875 0 "/></g></g></g><g fill="#000000" fill-opacity="1"><g transform="translate(184.970395, 236.880892)"><g/></g></g><g fill="#000000" fill-opacity="1"><g transform="translate(191.830041, 236.880892)"><g><path d="M 7.34375 -5.109375 L 7.34375 0 L 4.75 0 L 4.75 -5.109375 L 0.3125 -12.453125 L 3.046875 -12.453125 L 6.03125 -7.1875 L 9.0625 -12.453125 L 11.78125 -12.453125 Z M 7.34375 -5.109375 "/></g></g></g><g fill="#000000" fill-opacity="1"><g transform="translate(205.735607, 236.880892)"><g><path d="M 13.328125 -6.28125 C 13.328125 -4.988281 13.066406 -3.847656 12.546875 -2.859375 C 12.035156 -1.878906 11.300781 -1.128906 10.34375 -0.609375 C 9.394531 -0.0859375 8.285156 0.171875 7.015625 0.171875 C 5.054688 0.171875 3.519531 -0.398438 2.40625 -1.546875 C 1.300781 -2.703125 0.75 -4.28125 0.75 -6.28125 C 0.75 -8.28125 1.300781 -9.835938 2.40625 -10.953125 C 3.507812 -12.078125 5.050781 -12.640625 7.03125 -12.640625 C 9 -12.640625 10.539062 -12.070312 11.65625 -10.9375 C 12.769531 -9.8125 13.328125 -8.257812 13.328125 -6.28125 Z M 10.65625 -6.28125 C 10.65625 -7.625 10.335938 -8.675781 9.703125 -9.4375 C 9.066406 -10.207031 8.175781 -10.59375 7.03125 -10.59375 C 5.863281 -10.59375 4.960938 -10.210938 4.328125 -9.453125 C 3.691406 -8.703125 3.375 -7.644531 3.375 -6.28125 C 3.375 -4.914062 3.695312 -3.835938 4.34375 -3.046875 C 5 -2.265625 5.890625 -1.875 7.015625 -1.875 C 8.179688 -1.875 9.078125 -2.253906 9.703125 -3.015625 C 10.335938 -3.785156 10.65625 -4.875 10.65625 -6.28125 Z M 10.65625 -6.28125 "/></g></g></g><g fill="#000000" fill-opacity="1"><g transform="translate(221.647986, 236.880892)"><g><path d="M 1.21875 0 L 1.21875 -12.453125 L 11.015625 -12.453125 L 11.015625 -10.4375 L 3.8125 -10.4375 L 3.8125 -7.3125 L 10.46875 -7.3125 L 10.46875 -5.296875 L 3.8125 -5.296875 L 3.8125 -2.015625 L 11.375 -2.015625 L 11.375 0 Z M 1.21875 0 "/></g></g></g><g fill="#000000" fill-opacity="1"><g transform="translate(235.553558, 236.880892)"><g><path d="M 1.21875 0 L 1.21875 -12.453125 L 3.8125 -12.453125 L 3.8125 -2.015625 L 10.5 -2.015625 L 10.5 0 Z M 1.21875 0 "/></g></g></g><path fill="#2e2e2e" d="M 161.910156 185.429688 C 161.359375 181.351562 161.082031 177.171875 161.078125 173.007812 C 161.078125 173 161.078125 172.988281 161.078125 172.980469 C 161.078125 172.972656 161.078125 172.960938 161.078125 172.953125 C 161.082031 168.933594 161.675781 165.011719 162.84375 161.292969 C 163.96875 157.710938 165.589844 154.425781 167.660156 151.527344 C 168.542969 150.296875 169.507812 149.132812 170.53125 148.078125 C 171.554688 147.019531 172.648438 146.054688 173.785156 145.199219 C 174.667969 144.539062 175.589844 143.9375 176.523438 143.40625 C 177.464844 142.875 178.441406 142.410156 179.429688 142.019531 C 180.261719 141.691406 181.117188 141.410156 181.96875 141.183594 C 182.835938 140.957031 183.71875 140.78125 184.601562 140.664062 C 185.074219 140.601562 185.558594 140.550781 186.039062 140.519531 C 186.828125 140.464844 187.636719 140.457031 188.425781 140.492188 C 188.734375 140.503906 189.046875 140.523438 189.351562 140.550781 C 190.085938 140.613281 190.828125 140.714844 191.554688 140.851562 C 192.269531 140.988281 192.992188 141.164062 193.695312 141.375 C 194.394531 141.582031 195.09375 141.828125 195.777344 142.105469 C 196.453125 142.382812 197.128906 142.695312 197.789062 143.042969 C 198.375 143.347656 198.957031 143.683594 199.523438 144.042969 C 200.085938 144.398438 200.648438 144.785156 201.191406 145.191406 C 201.738281 145.601562 202.28125 146.042969 202.804688 146.503906 C 203.332031 146.964844 203.847656 147.453125 204.339844 147.957031 C 204.828125 148.457031 205.308594 148.980469 205.761719 149.519531 C 206.21875 150.058594 206.664062 150.621094 207.089844 151.199219 C 207.511719 151.773438 207.921875 152.375 208.3125 152.984375 C 208.699219 153.597656 209.074219 154.234375 209.429688 154.878906 C 209.785156 155.535156 210.128906 156.214844 210.449219 156.902344 C 210.769531 157.589844 211.070312 158.300781 211.347656 159.015625 C 211.347656 159.015625 211.347656 159.019531 211.347656 159.019531 C 211.648438 159.789062 211.925781 160.582031 212.171875 161.375 C 212.421875 162.175781 212.648438 163 212.84375 163.828125 C 212.980469 164.402344 213.535156 164.792969 214.152344 164.792969 C 214.246094 164.792969 214.34375 164.785156 214.441406 164.765625 C 215.160156 164.621094 215.617188 163.960938 215.460938 163.296875 C 215.25 162.421875 215.011719 161.546875 214.746094 160.695312 C 214.484375 159.851562 214.1875 159.007812 213.871094 158.1875 C 213.574219 157.425781 213.25 156.667969 212.910156 155.929688 C 212.570312 155.199219 212.203125 154.472656 211.820312 153.769531 C 211.441406 153.082031 211.039062 152.398438 210.621094 151.742188 C 210.203125 151.082031 209.761719 150.4375 209.308594 149.820312 C 209.308594 149.816406 209.308594 149.816406 209.308594 149.816406 C 208.847656 149.195312 208.367188 148.582031 207.871094 148 C 207.378906 147.417969 206.859375 146.847656 206.332031 146.308594 C 205.792969 145.757812 205.226562 145.222656 204.65625 144.71875 C 204.082031 144.214844 203.484375 143.730469 202.878906 143.277344 C 202.28125 142.828125 201.664062 142.402344 201.039062 142.007812 C 200.410156 141.609375 199.761719 141.238281 199.113281 140.898438 C 198.375 140.511719 197.617188 140.160156 196.863281 139.851562 C 196.09375 139.539062 195.304688 139.261719 194.519531 139.027344 C 194.519531 139.027344 194.515625 139.027344 194.515625 139.027344 C 193.71875 138.789062 192.90625 138.59375 192.09375 138.4375 C 191.273438 138.28125 190.433594 138.167969 189.601562 138.09375 C 189.257812 138.066406 188.902344 138.042969 188.550781 138.027344 C 187.652344 137.988281 186.738281 138 185.84375 138.058594 C 185.300781 138.097656 184.75 138.152344 184.214844 138.222656 C 183.214844 138.359375 182.214844 138.558594 181.234375 138.8125 C 180.273438 139.066406 179.308594 139.382812 178.371094 139.753906 C 177.269531 140.191406 176.175781 140.710938 175.125 141.304688 C 174.085938 141.890625 173.066406 142.558594 172.09375 143.289062 C 170.847656 144.222656 169.648438 145.285156 168.53125 146.4375 C 167.421875 147.582031 166.378906 148.839844 165.425781 150.171875 C 163.203125 153.277344 161.46875 156.789062 160.269531 160.609375 C 159.035156 164.546875 158.40625 168.695312 158.402344 172.941406 C 158.402344 172.949219 158.402344 172.960938 158.402344 172.964844 L 158.402344 172.992188 C 158.402344 173 158.402344 173.007812 158.402344 173.015625 C 158.402344 177.28125 158.691406 181.558594 159.253906 185.734375 C 159.808594 189.824219 160.636719 193.886719 161.71875 197.808594 C 161.871094 198.367188 162.417969 198.738281 163.015625 198.738281 C 163.125 198.738281 163.234375 198.726562 163.34375 198.699219 C 164.0625 198.53125 164.496094 197.859375 164.3125 197.199219 C 163.257812 193.378906 162.453125 189.417969 161.910156 185.429688 " fill-opacity="1" fill-rule="nonzero"/><g clip-path="url(#38bc7cc814)"><path fill="#2e2e2e" d="M 164.152344 149.109375 C 164.542969 148.53125 164.351562 147.769531 163.726562 147.410156 C 163.097656 147.046875 162.269531 147.222656 161.878906 147.800781 C 159.515625 151.285156 157.675781 155.183594 156.410156 159.394531 C 155.101562 163.742188 154.4375 168.3125 154.4375 172.980469 C 154.4375 173.660156 155.035156 174.210938 155.777344 174.210938 C 156.515625 174.210938 157.113281 173.660156 157.113281 172.980469 C 157.113281 168.535156 157.746094 164.183594 158.988281 160.054688 C 160.1875 156.070312 161.925781 152.386719 164.152344 149.109375 " fill-opacity="1" fill-rule="nonzero"/></g><g clip-path="url(#9248ca6d25)"><path fill="#2e2e2e" d="M 169.855469 142.160156 C 170.171875 142.160156 170.488281 142.058594 170.742188 141.851562 C 171.695312 141.074219 172.691406 140.359375 173.703125 139.71875 C 174.722656 139.078125 175.785156 138.503906 176.855469 138.007812 C 176.855469 138.007812 176.859375 138.007812 176.859375 138.007812 C 177.765625 137.59375 178.695312 137.226562 179.625 136.917969 C 180.570312 136.609375 181.535156 136.351562 182.5 136.152344 C 183.3125 135.988281 184.144531 135.863281 184.96875 135.777344 C 185.804688 135.691406 186.652344 135.648438 187.496094 135.648438 L 187.703125 135.652344 C 188.507812 135.660156 189.324219 135.703125 190.125 135.789062 C 190.917969 135.871094 191.714844 135.996094 192.496094 136.15625 C 193.238281 136.308594 193.984375 136.496094 194.71875 136.714844 C 195.441406 136.933594 196.167969 137.1875 196.878906 137.472656 C 197.585938 137.753906 198.292969 138.074219 198.980469 138.417969 C 199.664062 138.765625 200.347656 139.144531 201.011719 139.550781 C 201.601562 139.914062 202.1875 140.300781 202.761719 140.710938 C 203.332031 141.121094 203.894531 141.558594 204.441406 142.007812 C 204.441406 142.007812 204.441406 142.007812 204.441406 142.011719 C 204.992188 142.464844 205.539062 142.953125 206.070312 143.457031 C 206.59375 143.957031 207.113281 144.484375 207.613281 145.03125 C 208.105469 145.5625 208.582031 146.117188 209.042969 146.6875 C 209.503906 147.253906 209.953125 147.847656 210.382812 148.453125 C 210.800781 149.042969 211.214844 149.660156 211.601562 150.285156 C 211.992188 150.910156 212.371094 151.554688 212.730469 152.210938 C 213.085938 152.859375 213.425781 153.527344 213.746094 154.199219 C 214.066406 154.875 214.375 155.574219 214.660156 156.269531 C 214.863281 156.765625 215.371094 157.070312 215.914062 157.070312 C 216.070312 157.070312 216.230469 157.042969 216.386719 156.988281 C 217.078125 156.75 217.425781 156.039062 217.167969 155.402344 C 216.867188 154.664062 216.539062 153.925781 216.199219 153.210938 C 215.859375 152.5 215.5 151.789062 215.125 151.101562 C 215.121094 151.101562 215.121094 151.101562 215.121094 151.101562 C 214.742188 150.40625 214.339844 149.71875 213.925781 149.054688 C 213.507812 148.390625 213.070312 147.734375 212.621094 147.101562 C 212.164062 146.457031 211.683594 145.820312 211.191406 145.214844 C 210.699219 144.605469 210.183594 144.007812 209.660156 143.4375 C 209.121094 142.851562 208.558594 142.28125 207.992188 141.742188 C 207.421875 141.199219 206.832031 140.671875 206.234375 140.175781 C 206.234375 140.175781 206.234375 140.175781 206.230469 140.175781 C 205.640625 139.683594 205.027344 139.210938 204.40625 138.765625 C 203.78125 138.320312 203.140625 137.894531 202.496094 137.5 C 202.496094 137.5 202.492188 137.496094 202.492188 137.496094 C 201.765625 137.050781 201.015625 136.632812 200.265625 136.257812 C 199.507812 135.875 198.726562 135.523438 197.945312 135.210938 C 197.160156 134.894531 196.351562 134.613281 195.546875 134.371094 C 194.734375 134.125 193.902344 133.917969 193.078125 133.75 C 193.078125 133.75 193.078125 133.75 193.074219 133.746094 C 192.207031 133.570312 191.316406 133.433594 190.429688 133.339844 C 189.535156 133.246094 188.625 133.191406 187.726562 133.1875 L 187.621094 133.183594 C 187.578125 133.183594 187.535156 133.183594 187.496094 133.183594 C 186.554688 133.183594 185.605469 133.230469 184.671875 133.328125 C 183.753906 133.421875 182.828125 133.5625 181.917969 133.746094 C 180.847656 133.964844 179.769531 134.25 178.722656 134.597656 C 177.691406 134.9375 176.660156 135.34375 175.660156 135.804688 C 175.660156 135.804688 175.660156 135.804688 175.65625 135.804688 C 174.476562 136.347656 173.3125 136.980469 172.195312 137.683594 C 171.089844 138.378906 170.003906 139.160156 168.964844 140.003906 C 168.414062 140.457031 168.359375 141.234375 168.851562 141.742188 C 169.117188 142.019531 169.484375 142.160156 169.855469 142.160156 " fill-opacity="1" fill-rule="nonzero"/></g><path fill="#2e2e2e" d="M 175.742188 204.980469 C 175.199219 203.777344 174.679688 202.542969 174.199219 201.300781 C 173.953125 200.660156 173.1875 200.324219 172.488281 200.554688 C 171.792969 200.78125 171.429688 201.488281 171.679688 202.128906 C 172.175781 203.410156 172.710938 204.6875 173.269531 205.925781 C 173.832031 207.164062 174.429688 208.394531 175.050781 209.585938 C 175.28125 210.027344 175.757812 210.285156 176.257812 210.285156 C 176.453125 210.285156 176.648438 210.246094 176.835938 210.164062 C 177.503906 209.871094 177.785156 209.132812 177.464844 208.519531 C 176.863281 207.367188 176.285156 206.175781 175.742188 204.980469 " fill-opacity="1" fill-rule="nonzero"/><path fill="#2e2e2e" d="M 169.332031 199.800781 C 168.789062 198.171875 168.285156 196.496094 167.84375 194.816406 C 167.667969 194.15625 166.945312 193.75 166.226562 193.910156 C 165.507812 194.074219 165.066406 194.738281 165.242188 195.402344 C 165.695312 197.125 166.210938 198.847656 166.773438 200.523438 C 167.328125 202.191406 167.941406 203.851562 168.601562 205.464844 C 168.800781 205.960938 169.3125 206.265625 169.855469 206.265625 C 170.011719 206.265625 170.167969 206.242188 170.324219 206.1875 C 171.015625 205.949219 171.367188 205.238281 171.109375 204.597656 C 170.46875 203.035156 169.871094 201.417969 169.332031 199.800781 " fill-opacity="1" fill-rule="nonzero"/><path fill="#2e2e2e" d="M 172.660156 196.925781 C 172.1875 195.441406 171.757812 193.917969 171.375 192.394531 C 170.601562 189.308594 170.011719 186.125 169.617188 182.929688 C 169.214844 179.667969 169.011719 176.328125 169.007812 173.007812 C 169.007812 173 169.007812 172.988281 169.007812 172.980469 C 169.007812 172.976562 169.007812 172.960938 169.007812 172.953125 C 169.011719 169.796875 169.527344 166.742188 170.539062 163.871094 C 171.511719 161.113281 172.898438 158.648438 174.660156 156.542969 C 175.410156 155.644531 176.226562 154.820312 177.089844 154.089844 C 177.953125 153.363281 178.867188 152.71875 179.8125 152.183594 C 180.546875 151.765625 181.3125 151.40625 182.082031 151.113281 C 182.863281 150.816406 183.667969 150.582031 184.472656 150.417969 C 184.964844 150.316406 185.46875 150.238281 185.964844 150.1875 C 186.667969 150.117188 187.378906 150.09375 188.097656 150.121094 C 188.292969 150.132812 188.496094 150.144531 188.691406 150.160156 L 188.695312 150.160156 C 189.371094 150.210938 190.050781 150.3125 190.714844 150.457031 C 191.371094 150.601562 192.027344 150.792969 192.667969 151.023438 C 193.238281 151.230469 193.808594 151.472656 194.359375 151.746094 C 194.90625 152.019531 195.453125 152.332031 195.980469 152.667969 C 196.523438 153.019531 197.058594 153.40625 197.570312 153.820312 C 198.085938 154.234375 198.585938 154.6875 199.066406 155.164062 C 199.554688 155.652344 200.035156 156.179688 200.484375 156.730469 C 200.933594 157.28125 201.367188 157.863281 201.769531 158.46875 C 201.769531 158.472656 201.769531 158.472656 201.769531 158.472656 C 202.21875 159.148438 202.640625 159.859375 203.023438 160.589844 C 203.410156 161.328125 203.765625 162.101562 204.078125 162.886719 C 204.691406 164.421875 205.164062 166.042969 205.484375 167.707031 C 205.8125 169.417969 205.976562 171.183594 205.980469 172.960938 C 205.980469 172.96875 205.980469 172.972656 205.980469 172.980469 C 205.980469 172.984375 205.980469 172.992188 205.980469 173 C 205.980469 173.035156 205.984375 173.070312 205.984375 173.101562 C 205.988281 173.109375 205.984375 173.117188 205.988281 173.125 C 205.992188 173.15625 205.996094 173.1875 206.003906 173.21875 C 206.003906 173.230469 206.007812 173.238281 206.007812 173.246094 C 206.015625 173.277344 206.023438 173.304688 206.03125 173.335938 C 206.035156 173.34375 206.039062 173.355469 206.042969 173.363281 C 206.050781 173.394531 206.066406 173.425781 206.078125 173.453125 C 206.082031 173.460938 206.082031 173.46875 206.085938 173.476562 C 206.292969 173.914062 206.765625 174.222656 207.320312 174.222656 C 207.964844 174.222656 208.503906 173.796875 208.628906 173.234375 C 208.648438 173.15625 208.65625 173.070312 208.65625 172.988281 C 208.65625 172.984375 208.65625 172.980469 208.65625 172.976562 C 208.65625 172.972656 208.65625 172.96875 208.65625 172.964844 C 208.65625 171.046875 208.476562 169.132812 208.121094 167.277344 C 207.777344 165.472656 207.261719 163.710938 206.59375 162.035156 C 206.25 161.175781 205.859375 160.328125 205.4375 159.519531 C 205.015625 158.714844 204.550781 157.929688 204.054688 157.183594 C 204.054688 157.183594 204.050781 157.179688 204.050781 157.179688 C 203.605469 156.507812 203.125 155.859375 202.621094 155.246094 C 202.121094 154.628906 201.585938 154.039062 201.03125 153.488281 C 200.492188 152.949219 199.921875 152.4375 199.339844 151.96875 C 198.75 151.492188 198.136719 151.046875 197.511719 150.648438 C 196.902344 150.253906 196.269531 149.894531 195.632812 149.578125 C 194.984375 149.257812 194.316406 148.96875 193.648438 148.726562 C 193.648438 148.726562 193.644531 148.726562 193.644531 148.726562 C 192.890625 148.453125 192.113281 148.230469 191.332031 148.058594 C 190.542969 147.886719 189.734375 147.765625 188.929688 147.703125 C 188.929688 147.703125 188.925781 147.703125 188.925781 147.703125 C 188.6875 147.683594 188.449219 147.667969 188.210938 147.660156 C 187.355469 147.625 186.507812 147.652344 185.671875 147.738281 C 185.078125 147.796875 184.480469 147.890625 183.890625 148.007812 C 182.933594 148.207031 181.984375 148.480469 181.0625 148.832031 C 180.15625 149.175781 179.261719 149.597656 178.40625 150.085938 C 177.316406 150.703125 176.261719 151.441406 175.277344 152.277344 C 174.304688 153.097656 173.382812 154.027344 172.539062 155.039062 C 170.589844 157.367188 169.058594 160.082031 167.992188 163.109375 C 166.894531 166.222656 166.335938 169.53125 166.332031 172.941406 C 166.332031 172.949219 166.332031 172.960938 166.332031 172.964844 L 166.332031 172.992188 C 166.332031 173 166.332031 173.007812 166.332031 173.015625 C 166.332031 176.429688 166.542969 179.859375 166.957031 183.210938 C 167.363281 186.496094 167.96875 189.773438 168.765625 192.949219 C 169.160156 194.515625 169.605469 196.089844 170.089844 197.617188 C 170.261719 198.15625 170.792969 198.503906 171.375 198.503906 C 171.5 198.503906 171.625 198.488281 171.75 198.453125 C 172.460938 198.261719 172.867188 197.578125 172.660156 196.925781 " fill-opacity="1" fill-rule="nonzero"/><path fill="#2e2e2e" d="M 165.761719 184.179688 C 165.285156 180.5 165.042969 176.734375 165.042969 172.980469 C 165.042969 169.382812 165.597656 165.882812 166.6875 162.578125 C 167.738281 159.398438 169.242188 156.511719 171.164062 154 C 171.984375 152.929688 172.875 151.933594 173.820312 151.035156 C 174.761719 150.140625 175.769531 149.332031 176.8125 148.632812 C 177.621094 148.089844 178.464844 147.605469 179.320312 147.191406 C 180.183594 146.773438 181.074219 146.417969 181.972656 146.136719 C 182.730469 145.902344 183.507812 145.710938 184.285156 145.574219 C 185.070312 145.433594 185.875 145.34375 186.671875 145.308594 C 186.808594 145.304688 186.945312 145.296875 187.082031 145.296875 C 187.800781 145.277344 188.53125 145.304688 189.25 145.375 C 189.820312 145.429688 190.398438 145.511719 190.964844 145.621094 C 191.65625 145.753906 192.347656 145.929688 193.019531 146.140625 C 193.6875 146.347656 194.355469 146.601562 195.007812 146.886719 C 195.585938 147.140625 196.164062 147.429688 196.722656 147.742188 C 197.28125 148.054688 197.835938 148.398438 198.371094 148.765625 C 198.917969 149.140625 199.457031 149.546875 199.976562 149.976562 C 200.496094 150.40625 201.003906 150.871094 201.496094 151.351562 C 201.980469 151.832031 202.457031 152.34375 202.910156 152.871094 C 203.363281 153.402344 203.804688 153.960938 204.222656 154.535156 C 204.480469 154.890625 204.90625 155.082031 205.335938 155.082031 C 205.59375 155.082031 205.851562 155.015625 206.082031 154.875 C 206.695312 154.496094 206.859375 153.730469 206.449219 153.164062 C 205.992188 152.535156 205.511719 151.925781 205.011719 151.34375 C 204.515625 150.761719 203.988281 150.199219 203.453125 149.667969 C 202.910156 149.132812 202.34375 148.621094 201.765625 148.144531 C 201.1875 147.664062 200.582031 147.207031 199.972656 146.789062 C 199.367188 146.375 198.742188 145.984375 198.113281 145.632812 C 197.476562 145.277344 196.820312 144.949219 196.164062 144.660156 C 196.160156 144.660156 196.160156 144.660156 196.160156 144.660156 C 195.414062 144.332031 194.648438 144.046875 193.882812 143.804688 C 193.105469 143.5625 192.308594 143.359375 191.511719 143.207031 C 190.855469 143.082031 190.1875 142.984375 189.527344 142.921875 C 188.691406 142.84375 187.847656 142.8125 187.019531 142.832031 C 186.859375 142.832031 186.699219 142.839844 186.542969 142.847656 C 185.617188 142.886719 184.6875 142.988281 183.777344 143.152344 C 182.882812 143.3125 181.984375 143.53125 181.109375 143.804688 C 180.082031 144.125 179.058594 144.53125 178.074219 145.007812 C 177.105469 145.476562 176.152344 146.027344 175.238281 146.636719 C 175.238281 146.636719 175.238281 146.636719 175.238281 146.640625 C 174.070312 147.421875 172.945312 148.324219 171.894531 149.320312 C 170.855469 150.308594 169.875 151.40625 168.976562 152.578125 C 166.890625 155.304688 165.257812 158.429688 164.125 161.859375 C 162.957031 165.398438 162.367188 169.140625 162.367188 172.980469 C 162.367188 176.832031 162.613281 180.695312 163.105469 184.46875 C 163.183594 185.097656 163.761719 185.558594 164.433594 185.558594 C 164.484375 185.558594 164.539062 185.554688 164.59375 185.546875 C 165.324219 185.46875 165.851562 184.855469 165.761719 184.179688 " fill-opacity="1" fill-rule="nonzero"/><g clip-path="url(#92ce3b1d1a)"><path fill="#2e2e2e" d="M 187.148438 208.445312 C 186.613281 207.628906 186.085938 206.78125 185.585938 205.929688 C 185.078125 205.066406 184.585938 204.171875 184.121094 203.273438 C 183.652344 202.371094 183.199219 201.441406 182.773438 200.511719 C 182.332031 199.535156 181.90625 198.535156 181.511719 197.535156 C 181.113281 196.53125 180.738281 195.496094 180.390625 194.460938 C 180.003906 193.3125 179.644531 192.128906 179.320312 190.953125 C 178.996094 189.761719 178.699219 188.542969 178.441406 187.332031 C 177.949219 185.03125 177.574219 182.664062 177.324219 180.296875 C 177.066406 177.886719 176.9375 175.425781 176.9375 172.980469 C 176.9375 172.296875 176.339844 171.746094 175.601562 171.746094 C 174.859375 171.746094 174.261719 172.296875 174.261719 172.980469 C 174.261719 175.503906 174.394531 178.046875 174.65625 180.539062 C 174.914062 182.980469 175.304688 185.429688 175.8125 187.808594 C 176.082031 189.0625 176.386719 190.324219 176.722656 191.554688 C 177.058594 192.773438 177.429688 193.996094 177.832031 195.1875 C 177.832031 195.1875 177.832031 195.191406 177.832031 195.191406 C 178.191406 196.261719 178.582031 197.335938 178.992188 198.378906 C 179.402344 199.417969 179.84375 200.453125 180.304688 201.464844 C 180.746094 202.433594 181.21875 203.398438 181.703125 204.335938 C 182.1875 205.273438 182.703125 206.203125 183.230469 207.101562 C 183.75 207.988281 184.296875 208.871094 184.859375 209.722656 C 185.421875 210.578125 186.007812 211.421875 186.605469 212.234375 C 186.867188 212.585938 187.285156 212.773438 187.714844 212.773438 C 187.972656 212.773438 188.234375 212.703125 188.464844 212.5625 C 189.078125 212.179688 189.238281 211.414062 188.824219 210.847656 C 188.25 210.070312 187.6875 209.261719 187.148438 208.445312 " fill-opacity="1" fill-rule="nonzero"/></g><path fill="#2e2e2e" d="M 196.765625 206.984375 C 196.230469 206.359375 195.707031 205.710938 195.203125 205.050781 C 194.710938 204.402344 194.222656 203.730469 193.761719 203.046875 C 193.292969 202.363281 192.839844 201.65625 192.410156 200.945312 C 192.046875 200.351562 191.234375 200.136719 190.585938 200.46875 C 189.941406 200.800781 189.710938 201.550781 190.070312 202.144531 C 190.523438 202.894531 191 203.640625 191.492188 204.355469 C 191.980469 205.074219 192.492188 205.785156 193.011719 206.46875 C 193.542969 207.164062 194.101562 207.851562 194.664062 208.507812 C 195.226562 209.167969 195.816406 209.816406 196.410156 210.4375 C 196.675781 210.710938 197.042969 210.851562 197.414062 210.851562 C 197.730469 210.851562 198.046875 210.75 198.300781 210.542969 C 198.855469 210.089844 198.90625 209.3125 198.417969 208.800781 C 197.855469 208.214844 197.300781 207.605469 196.765625 206.984375 " fill-opacity="1" fill-rule="nonzero"/><g clip-path="url(#8629232f87)"><path fill="#2e2e2e" d="M 192.179688 208.175781 C 191.640625 207.464844 191.117188 206.726562 190.613281 205.984375 C 190.113281 205.246094 189.625 204.484375 189.160156 203.710938 C 188.691406 202.9375 188.238281 202.140625 187.808594 201.335938 C 187.378906 200.53125 186.957031 199.699219 186.566406 198.867188 C 186.167969 198.03125 185.789062 197.167969 185.433594 196.308594 C 185.066406 195.421875 184.71875 194.515625 184.398438 193.609375 C 184.074219 192.699219 183.765625 191.761719 183.484375 190.832031 C 183.183594 189.820312 182.902344 188.789062 182.652344 187.757812 C 182.402344 186.71875 182.171875 185.660156 181.976562 184.601562 C 181.625 182.726562 181.355469 180.804688 181.175781 178.890625 C 180.996094 176.941406 180.902344 174.953125 180.902344 172.980469 C 180.902344 171.289062 181.300781 169.65625 182.050781 168.257812 C 182.757812 166.945312 183.738281 165.910156 184.878906 165.273438 C 184.878906 165.273438 184.878906 165.273438 184.878906 165.269531 C 185.289062 165.042969 185.714844 164.867188 186.148438 164.75 C 186.71875 164.597656 187.316406 164.542969 187.898438 164.589844 C 188.03125 164.597656 188.167969 164.613281 188.300781 164.636719 C 188.816406 164.71875 189.320312 164.878906 189.804688 165.113281 C 190.292969 165.347656 190.757812 165.660156 191.191406 166.039062 C 192.054688 166.792969 192.773438 167.800781 193.277344 168.960938 C 193.804688 170.183594 194.085938 171.574219 194.085938 172.976562 C 194.085938 172.976562 194.085938 172.976562 194.085938 172.980469 C 194.085938 172.992188 194.085938 173.007812 194.085938 173.019531 C 194.085938 173.042969 194.089844 173.0625 194.089844 173.085938 C 194.09375 173.09375 194.09375 173.101562 194.09375 173.109375 C 194.160156 173.730469 194.730469 174.214844 195.425781 174.214844 C 196.164062 174.214844 196.761719 173.664062 196.761719 172.980469 C 196.761719 172.976562 196.761719 172.976562 196.761719 172.976562 C 196.761719 171.242188 196.425781 169.582031 195.765625 168.050781 C 195.121094 166.558594 194.179688 165.246094 193.035156 164.25 C 192.425781 163.714844 191.757812 163.273438 191.054688 162.929688 C 190.320312 162.574219 189.546875 162.332031 188.753906 162.207031 C 188.546875 162.171875 188.335938 162.148438 188.128906 162.132812 C 187.21875 162.058594 186.285156 162.144531 185.398438 162.382812 C 184.738281 162.5625 184.097656 162.824219 183.488281 163.164062 C 183.488281 163.164062 183.488281 163.164062 183.484375 163.164062 C 181.910156 164.046875 180.585938 165.429688 179.652344 167.164062 C 178.71875 168.902344 178.226562 170.910156 178.226562 172.980469 C 178.226562 175.023438 178.320312 177.082031 178.507812 179.097656 C 178.691406 181.085938 178.972656 183.078125 179.335938 185.023438 C 179.542969 186.117188 179.777344 187.21875 180.039062 188.296875 C 180.300781 189.363281 180.589844 190.4375 180.90625 191.488281 C 181.195312 192.457031 181.515625 193.429688 181.851562 194.378906 C 182.1875 195.320312 182.550781 196.261719 182.929688 197.183594 C 183.300781 198.082031 183.699219 198.980469 184.109375 199.851562 C 184.519531 200.71875 184.957031 201.585938 185.40625 202.425781 C 185.855469 203.265625 186.332031 204.101562 186.820312 204.90625 C 187.304688 205.714844 187.816406 206.515625 188.339844 207.285156 C 188.339844 207.285156 188.339844 207.289062 188.339844 207.289062 C 188.867188 208.066406 189.417969 208.839844 189.984375 209.585938 C 190.546875 210.328125 191.132812 211.0625 191.730469 211.765625 C 191.992188 212.078125 192.386719 212.242188 192.785156 212.242188 C 193.074219 212.242188 193.363281 212.15625 193.609375 211.980469 C 194.191406 211.5625 194.296875 210.789062 193.84375 210.25 C 193.273438 209.578125 192.714844 208.882812 192.179688 208.175781 " fill-opacity="1" fill-rule="nonzero"/></g><path fill="#2e2e2e" d="M 189.847656 182.332031 C 189.707031 181.574219 189.578125 180.796875 189.472656 180.023438 C 189.367188 179.246094 189.277344 178.457031 189.203125 177.675781 C 189.132812 176.902344 189.082031 176.117188 189.046875 175.34375 C 189.011719 174.558594 188.992188 173.765625 188.992188 172.980469 C 188.992188 172.296875 188.390625 171.746094 187.652344 171.746094 C 186.914062 171.746094 186.3125 172.296875 186.3125 172.980469 C 186.3125 173.796875 186.332031 174.628906 186.371094 175.449219 C 186.40625 176.253906 186.460938 177.074219 186.535156 177.882812 C 186.609375 178.699219 186.703125 179.523438 186.816406 180.335938 C 186.929688 181.140625 187.058594 181.953125 187.207031 182.746094 C 187.320312 183.347656 187.886719 183.773438 188.523438 183.773438 C 188.601562 183.773438 188.675781 183.765625 188.753906 183.753906 C 189.480469 183.640625 189.972656 183.003906 189.847656 182.332031 " fill-opacity="1" fill-rule="nonzero"/><path fill="#2e2e2e" d="M 201.0625 204.957031 C 200.53125 204.402344 200.007812 203.824219 199.507812 203.234375 C 199.507812 203.230469 199.507812 203.230469 199.507812 203.230469 C 199.015625 202.652344 198.53125 202.046875 198.074219 201.4375 C 197.613281 200.824219 197.160156 200.1875 196.726562 199.539062 C 196.304688 198.90625 195.890625 198.25 195.5 197.589844 C 195.109375 196.925781 194.726562 196.242188 194.367188 195.550781 C 194.011719 194.871094 193.667969 194.171875 193.347656 193.472656 C 193.023438 192.765625 192.714844 192.039062 192.429688 191.316406 C 192.144531 190.605469 191.875 189.871094 191.625 189.136719 C 191.371094 188.398438 191.136719 187.644531 190.921875 186.894531 C 190.734375 186.234375 190 185.84375 189.285156 186.015625 C 188.570312 186.191406 188.144531 186.867188 188.332031 187.523438 C 188.558594 188.308594 188.804688 189.101562 189.070312 189.875 C 189.332031 190.644531 189.617188 191.414062 189.914062 192.164062 C 190.214844 192.921875 190.539062 193.6875 190.878906 194.429688 C 191.21875 195.167969 191.578125 195.902344 191.953125 196.617188 C 192.332031 197.347656 192.734375 198.070312 193.148438 198.769531 C 193.5625 199.46875 193.996094 200.160156 194.445312 200.832031 C 194.902344 201.515625 195.382812 202.191406 195.871094 202.84375 C 196.359375 203.492188 196.875 204.132812 197.394531 204.75 C 197.394531 204.75 197.398438 204.75 197.398438 204.75 C 197.929688 205.378906 198.488281 206 199.054688 206.589844 C 199.621094 207.179688 200.210938 207.757812 200.808594 208.304688 C 201.070312 208.546875 201.410156 208.667969 201.753906 208.667969 C 202.097656 208.667969 202.441406 208.546875 202.703125 208.304688 C 203.222656 207.824219 203.222656 207.042969 202.703125 206.5625 C 202.144531 206.050781 201.59375 205.511719 201.0625 204.957031 " fill-opacity="1" fill-rule="nonzero"/><path fill="#2e2e2e" d="M 206.230469 203.949219 C 205.679688 203.492188 205.132812 203.007812 204.605469 202.503906 C 204.078125 202.003906 203.558594 201.472656 203.058594 200.929688 C 202.570312 200.398438 202.089844 199.839844 201.628906 199.273438 C 201.171875 198.707031 200.71875 198.113281 200.292969 197.507812 C 199.871094 196.914062 199.460938 196.300781 199.070312 195.675781 C 198.679688 195.050781 198.300781 194.402344 197.941406 193.75 C 197.941406 193.75 197.941406 193.746094 197.941406 193.746094 C 197.585938 193.097656 197.246094 192.429688 196.925781 191.757812 C 196.605469 191.082031 196.296875 190.386719 196.011719 189.691406 C 196.011719 189.6875 196.011719 189.6875 196.011719 189.6875 C 195.726562 188.992188 195.453125 188.273438 195.207031 187.554688 C 194.957031 186.832031 194.722656 186.089844 194.511719 185.347656 C 194.507812 185.347656 194.507812 185.347656 194.507812 185.347656 C 194.289062 184.582031 194.089844 183.800781 193.910156 183.019531 C 193.734375 182.230469 193.574219 181.425781 193.4375 180.625 C 193.226562 179.386719 193.066406 178.121094 192.960938 176.863281 C 192.851562 175.582031 192.796875 174.277344 192.796875 172.976562 C 192.796875 172.976562 192.796875 172.976562 192.796875 172.972656 C 192.796875 171.519531 192.34375 170.117188 191.519531 169.023438 C 190.632812 167.847656 189.398438 167.113281 188.035156 166.957031 C 187.945312 166.949219 187.855469 166.941406 187.765625 166.933594 C 187.675781 166.929688 187.585938 166.925781 187.496094 166.925781 C 186.027344 166.925781 184.617188 167.621094 183.625 168.828125 C 182.699219 169.949219 182.191406 171.425781 182.191406 172.980469 C 182.191406 174.488281 182.246094 176.007812 182.359375 177.503906 C 182.472656 178.976562 182.636719 180.460938 182.859375 181.914062 C 183 182.847656 183.164062 183.792969 183.351562 184.722656 C 183.539062 185.640625 183.746094 186.5625 183.976562 187.46875 C 184.199219 188.34375 184.445312 189.226562 184.707031 190.082031 C 184.964844 190.9375 185.25 191.792969 185.550781 192.632812 C 185.851562 193.464844 186.171875 194.300781 186.511719 195.117188 C 186.847656 195.925781 187.207031 196.734375 187.582031 197.523438 C 187.800781 197.984375 188.292969 198.261719 188.808594 198.261719 C 188.988281 198.261719 189.171875 198.230469 189.34375 198.160156 C 190.023438 197.886719 190.332031 197.160156 190.035156 196.535156 C 189.679688 195.78125 189.335938 195.007812 189.011719 194.234375 C 188.691406 193.453125 188.378906 192.652344 188.09375 191.859375 C 188.09375 191.859375 188.09375 191.855469 188.09375 191.855469 C 187.804688 191.054688 187.535156 190.234375 187.285156 189.417969 C 187.035156 188.59375 186.796875 187.75 186.585938 186.910156 C 186.363281 186.039062 186.164062 185.152344 185.984375 184.269531 C 185.804688 183.378906 185.644531 182.472656 185.511719 181.574219 C 185.511719 181.574219 185.511719 181.574219 185.511719 181.570312 C 185.300781 180.175781 185.136719 178.75 185.03125 177.332031 C 184.921875 175.894531 184.867188 174.429688 184.867188 172.980469 C 184.867188 171.972656 185.191406 171.003906 185.757812 170.316406 C 186.042969 169.972656 186.644531 169.390625 187.496094 169.390625 C 187.53125 169.390625 187.566406 169.394531 187.601562 169.394531 C 187.636719 169.398438 187.671875 169.402344 187.707031 169.40625 C 188.300781 169.472656 188.871094 169.835938 189.320312 170.429688 C 189.835938 171.113281 190.121094 172.019531 190.121094 172.976562 C 190.121094 172.976562 190.121094 172.980469 190.121094 172.980469 C 190.121094 172.980469 190.121094 172.984375 190.121094 172.984375 C 190.121094 174.339844 190.175781 175.710938 190.289062 177.054688 C 190.402344 178.375 190.570312 179.703125 190.792969 181.007812 C 190.933594 181.847656 191.101562 182.695312 191.289062 183.523438 C 191.476562 184.34375 191.691406 185.171875 191.917969 185.976562 C 191.921875 185.976562 191.921875 185.976562 191.921875 185.976562 C 192.144531 186.757812 192.390625 187.539062 192.65625 188.300781 C 192.917969 189.058594 193.203125 189.820312 193.503906 190.558594 C 193.808594 191.296875 194.132812 192.03125 194.472656 192.75 C 194.8125 193.460938 195.171875 194.167969 195.550781 194.855469 C 195.550781 194.855469 195.550781 194.855469 195.550781 194.859375 C 195.929688 195.554688 196.332031 196.242188 196.746094 196.90625 C 197.164062 197.570312 197.601562 198.226562 198.050781 198.859375 C 198.507812 199.503906 198.992188 200.136719 199.480469 200.746094 C 199.972656 201.355469 200.488281 201.953125 201.011719 202.523438 C 201.550781 203.105469 202.113281 203.675781 202.679688 204.21875 C 203.25 204.761719 203.84375 205.289062 204.441406 205.785156 C 204.695312 205.996094 205.015625 206.101562 205.335938 206.101562 C 205.703125 206.101562 206.066406 205.960938 206.332031 205.691406 C 206.828125 205.1875 206.78125 204.40625 206.230469 203.949219 " fill-opacity="1" fill-rule="nonzero"/><path fill="#2e2e2e" d="M 209.480469 200.769531 C 208.933594 200.359375 208.390625 199.914062 207.867188 199.457031 C 207.34375 198.996094 206.824219 198.507812 206.332031 198 C 205.84375 197.503906 205.367188 196.980469 204.910156 196.441406 C 204.453125 195.902344 204.007812 195.335938 203.582031 194.757812 C 203.160156 194.183594 202.75 193.585938 202.363281 192.972656 C 201.972656 192.363281 201.597656 191.726562 201.242188 191.078125 C 200.882812 190.421875 200.542969 189.742188 200.222656 189.058594 C 199.90625 188.371094 199.601562 187.660156 199.324219 186.941406 C 199.023438 186.171875 198.75 185.378906 198.5 184.582031 C 198.25 183.78125 198.023438 182.957031 197.828125 182.132812 C 197.667969 181.46875 196.953125 181.046875 196.234375 181.195312 C 195.511719 181.339844 195.054688 181.996094 195.210938 182.664062 C 195.421875 183.535156 195.660156 184.410156 195.925781 185.261719 C 196.1875 186.109375 196.484375 186.953125 196.800781 187.769531 C 196.800781 187.769531 196.800781 187.773438 196.800781 187.773438 C 197.097656 188.535156 197.421875 189.296875 197.761719 190.027344 C 198.101562 190.757812 198.46875 191.484375 198.851562 192.1875 C 199.230469 192.882812 199.632812 193.5625 200.050781 194.21875 C 200.46875 194.875 200.910156 195.523438 201.363281 196.140625 C 201.824219 196.765625 202.304688 197.375 202.800781 197.957031 C 203.292969 198.542969 203.8125 199.109375 204.339844 199.652344 C 204.882812 200.203125 205.445312 200.738281 206.015625 201.238281 C 206.589844 201.746094 207.1875 202.230469 207.792969 202.683594 C 208.039062 202.867188 208.339844 202.957031 208.636719 202.957031 C 209.027344 202.957031 209.410156 202.804688 209.675781 202.503906 C 210.144531 201.976562 210.054688 201.199219 209.480469 200.769531 " fill-opacity="1" fill-rule="nonzero"/><path fill="#2e2e2e" d="M 212.300781 197.195312 C 211.757812 196.820312 211.214844 196.414062 210.695312 195.980469 C 210.179688 195.554688 209.667969 195.089844 209.179688 194.609375 C 208.691406 194.128906 208.214844 193.617188 207.761719 193.085938 C 207.308594 192.558594 206.867188 192 206.449219 191.425781 C 206.023438 190.835938 205.609375 190.214844 205.222656 189.582031 C 204.835938 188.945312 204.464844 188.28125 204.125 187.609375 C 203.75 186.871094 203.398438 186.097656 203.082031 185.316406 C 202.761719 184.53125 202.472656 183.714844 202.214844 182.894531 C 201.730469 181.34375 201.359375 179.726562 201.109375 178.09375 C 200.855469 176.421875 200.726562 174.699219 200.726562 172.980469 C 200.726562 171.105469 200.453125 169.273438 199.914062 167.53125 C 199.386719 165.839844 198.621094 164.277344 197.644531 162.890625 C 197.136719 162.175781 196.574219 161.507812 195.96875 160.910156 C 195.359375 160.304688 194.695312 159.765625 194 159.300781 C 193.378906 158.886719 192.726562 158.527344 192.058594 158.238281 C 191.371094 157.941406 190.65625 157.710938 189.9375 157.550781 C 189.9375 157.550781 189.933594 157.550781 189.929688 157.550781 C 189.539062 157.464844 189.132812 157.398438 188.734375 157.355469 C 187.894531 157.261719 187.039062 157.265625 186.207031 157.359375 C 185.789062 157.40625 185.371094 157.480469 184.957031 157.574219 C 184.957031 157.574219 184.957031 157.574219 184.953125 157.574219 C 184.003906 157.792969 183.070312 158.132812 182.1875 158.59375 C 181.324219 159.039062 180.503906 159.59375 179.742188 160.246094 C 179.203125 160.707031 179.171875 161.488281 179.675781 161.988281 C 179.9375 162.25 180.296875 162.378906 180.65625 162.378906 C 180.980469 162.378906 181.308594 162.269531 181.566406 162.050781 C 182.171875 161.53125 182.824219 161.09375 183.496094 160.742188 C 184.175781 160.390625 184.882812 160.132812 185.601562 159.964844 C 185.601562 159.964844 185.605469 159.964844 185.605469 159.964844 C 185.914062 159.894531 186.226562 159.84375 186.539062 159.804688 C 187.15625 159.734375 187.792969 159.734375 188.414062 159.800781 C 188.714844 159.835938 189.019531 159.882812 189.3125 159.949219 C 189.316406 159.949219 189.316406 159.949219 189.316406 159.949219 C 189.855469 160.070312 190.394531 160.246094 190.917969 160.46875 C 191.433594 160.695312 191.941406 160.972656 192.429688 161.296875 C 192.984375 161.667969 193.515625 162.101562 194.011719 162.59375 C 194.511719 163.085938 194.976562 163.636719 195.398438 164.234375 C 196.230469 165.414062 196.886719 166.753906 197.335938 168.210938 C 197.808594 169.730469 198.050781 171.335938 198.050781 172.980469 C 198.050781 174.8125 198.1875 176.648438 198.457031 178.4375 C 198.726562 180.183594 199.121094 181.914062 199.640625 183.574219 C 199.917969 184.457031 200.230469 185.332031 200.574219 186.179688 C 200.914062 187.023438 201.292969 187.855469 201.699219 188.652344 C 202.066406 189.382812 202.46875 190.101562 202.886719 190.789062 C 203.308594 191.480469 203.757812 192.152344 204.222656 192.792969 C 204.222656 192.796875 204.222656 192.796875 204.222656 192.796875 C 204.679688 193.425781 205.164062 194.035156 205.660156 194.613281 C 206.15625 195.195312 206.683594 195.761719 207.21875 196.289062 C 207.761719 196.824219 208.328125 197.339844 208.90625 197.816406 C 209.484375 198.296875 210.089844 198.753906 210.699219 199.171875 C 210.941406 199.335938 211.222656 199.417969 211.5 199.417969 C 211.910156 199.417969 212.3125 199.246094 212.574219 198.921875 C 213.015625 198.375 212.894531 197.601562 212.300781 197.195312 " fill-opacity="1" fill-rule="nonzero"/><path fill="#2e2e2e" d="M 216.667969 189.105469 C 216.125 188.765625 215.59375 188.375 215.085938 187.953125 C 214.582031 187.53125 214.09375 187.0625 213.632812 186.5625 C 213.632812 186.5625 213.632812 186.558594 213.632812 186.558594 C 213.121094 186.003906 212.632812 185.394531 212.1875 184.753906 C 211.738281 184.109375 211.324219 183.417969 210.953125 182.703125 C 210.636719 182.089844 209.835938 181.828125 209.167969 182.121094 C 208.5 182.414062 208.21875 183.148438 208.535156 183.765625 C 208.953125 184.570312 209.421875 185.351562 209.933594 186.085938 C 210.441406 186.816406 211 187.511719 211.585938 188.152344 C 211.589844 188.152344 211.589844 188.15625 211.589844 188.15625 C 212.125 188.734375 212.695312 189.28125 213.285156 189.777344 C 213.882812 190.277344 214.511719 190.738281 215.160156 191.144531 C 215.390625 191.289062 215.652344 191.355469 215.914062 191.355469 C 216.339844 191.355469 216.761719 191.167969 217.019531 190.820312 C 217.4375 190.253906 217.277344 189.488281 216.667969 189.105469 " fill-opacity="1" fill-rule="nonzero"/><g clip-path="url(#27529ef8f2)"><path fill="#2e2e2e" d="M 214.691406 193.289062 C 214.152344 192.941406 213.613281 192.554688 213.101562 192.140625 C 212.585938 191.722656 212.085938 191.273438 211.605469 190.796875 C 211.117188 190.308594 210.636719 189.78125 210.1875 189.230469 C 209.738281 188.679688 209.304688 188.09375 208.902344 187.488281 C 208.453125 186.8125 208.03125 186.101562 207.648438 185.371094 C 207.261719 184.632812 206.90625 183.859375 206.59375 183.070312 C 205.980469 181.535156 205.507812 179.914062 205.1875 178.253906 C 204.859375 176.539062 204.695312 174.769531 204.691406 172.988281 L 204.691406 172.964844 C 204.691406 171.03125 204.464844 169.121094 204.023438 167.28125 C 203.589844 165.492188 202.957031 163.78125 202.136719 162.199219 C 202.136719 162.195312 202.136719 162.195312 202.136719 162.195312 C 201.71875 161.386719 201.25 160.609375 200.738281 159.875 C 200.230469 159.144531 199.675781 158.449219 199.085938 157.804688 C 199.082031 157.804688 199.082031 157.804688 199.082031 157.804688 C 198.546875 157.222656 197.976562 156.679688 197.386719 156.183594 C 196.789062 155.683594 196.160156 155.222656 195.511719 154.816406 C 194.898438 154.429688 194.253906 154.085938 193.605469 153.792969 C 192.945312 153.492188 192.261719 153.242188 191.570312 153.042969 C 190.914062 152.855469 190.242188 152.707031 189.570312 152.613281 C 188.886719 152.515625 188.1875 152.464844 187.496094 152.464844 C 187.367188 152.464844 187.242188 152.46875 187.121094 152.46875 C 186.996094 152.472656 186.871094 152.476562 186.75 152.484375 C 185.863281 152.53125 184.980469 152.65625 184.117188 152.859375 C 183.273438 153.058594 182.433594 153.335938 181.628906 153.683594 C 181.628906 153.683594 181.628906 153.683594 181.625 153.683594 C 180.609375 154.121094 179.625 154.679688 178.695312 155.339844 C 177.78125 155.984375 176.917969 156.738281 176.121094 157.574219 C 174.328125 159.460938 172.910156 161.71875 171.902344 164.296875 C 170.871094 166.9375 170.328125 169.765625 170.296875 172.714844 L 170.296875 173.242188 C 170.296875 173.246094 170.296875 173.246094 170.296875 173.246094 C 170.308594 176.179688 170.484375 179.128906 170.820312 182.015625 C 171.152344 184.851562 171.644531 187.683594 172.289062 190.429688 C 172.621094 191.839844 172.996094 193.257812 173.40625 194.636719 C 173.816406 196.007812 174.269531 197.378906 174.757812 198.714844 C 175.183594 199.890625 175.648438 201.066406 176.132812 202.207031 C 176.621094 203.347656 177.140625 204.480469 177.679688 205.582031 C 178.191406 206.621094 178.734375 207.65625 179.292969 208.664062 C 179.855469 209.667969 180.445312 210.664062 181.050781 211.628906 C 181.296875 212.023438 181.746094 212.242188 182.210938 212.242188 C 182.4375 212.242188 182.667969 212.1875 182.878906 212.074219 C 183.519531 211.734375 183.738281 210.980469 183.367188 210.390625 C 182.785156 209.464844 182.214844 208.503906 181.675781 207.539062 C 181.136719 206.566406 180.613281 205.566406 180.121094 204.566406 C 179.597656 203.503906 179.097656 202.40625 178.628906 201.308594 C 178.15625 200.203125 177.707031 199.066406 177.296875 197.933594 C 177.296875 197.933594 177.296875 197.933594 177.296875 197.929688 C 176.824219 196.636719 176.386719 195.3125 175.992188 193.984375 C 175.59375 192.648438 175.226562 191.277344 174.90625 189.910156 C 174.285156 187.246094 173.804688 184.503906 173.484375 181.753906 C 173.15625 178.949219 172.984375 176.082031 172.976562 173.230469 L 172.972656 172.980469 L 172.976562 172.738281 C 173.003906 170.074219 173.492188 167.515625 174.421875 165.132812 C 175.300781 162.878906 176.585938 160.828125 178.132812 159.199219 C 178.816406 158.484375 179.554688 157.839844 180.328125 157.292969 C 181.105469 156.742188 181.921875 156.28125 182.761719 155.917969 C 183.421875 155.636719 184.097656 155.410156 184.78125 155.246094 C 185.476562 155.082031 186.1875 154.984375 186.894531 154.945312 C 186.894531 154.945312 186.898438 154.945312 186.898438 154.945312 C 186.996094 154.941406 187.09375 154.9375 187.195312 154.933594 C 187.851562 154.917969 188.511719 154.957031 189.160156 155.050781 C 189.699219 155.125 190.242188 155.242188 190.769531 155.394531 C 191.328125 155.558594 191.886719 155.761719 192.425781 156.007812 C 192.960938 156.25 193.492188 156.535156 194.003906 156.855469 C 194.546875 157.195312 195.078125 157.582031 195.585938 158.007812 C 196.089844 158.429688 196.578125 158.898438 197.039062 159.398438 C 197.554688 159.957031 198.039062 160.566406 198.484375 161.207031 C 198.933594 161.851562 199.347656 162.542969 199.71875 163.257812 C 200.453125 164.675781 201.019531 166.207031 201.410156 167.816406 C 201.808594 169.480469 202.011719 171.210938 202.015625 172.964844 C 202.015625 172.96875 202.015625 172.976562 202.015625 172.980469 C 202.015625 172.984375 202.015625 172.992188 202.015625 173 C 202.015625 174.917969 202.195312 176.828125 202.550781 178.679688 C 202.898438 180.488281 203.410156 182.25 204.078125 183.921875 C 204.421875 184.785156 204.8125 185.628906 205.238281 186.441406 C 205.660156 187.246094 206.125 188.03125 206.621094 188.777344 C 207.066406 189.449219 207.546875 190.101562 208.050781 190.714844 C 208.554688 191.328125 209.089844 191.921875 209.640625 192.472656 C 210.179688 193.007812 210.75 193.519531 211.335938 193.992188 C 211.921875 194.46875 212.535156 194.914062 213.160156 195.3125 C 213.394531 195.460938 213.660156 195.535156 213.925781 195.535156 C 214.347656 195.535156 214.765625 195.351562 215.023438 195.007812 C 215.449219 194.449219 215.300781 193.679688 214.691406 193.289062 " fill-opacity="1" fill-rule="nonzero"/></g><path fill="#2e2e2e" d="M 218.246094 184.664062 C 217.691406 184.292969 217.15625 183.855469 216.660156 183.367188 C 216.164062 182.875 215.695312 182.320312 215.273438 181.726562 C 215.273438 181.726562 215.273438 181.726562 215.273438 181.722656 C 214.441406 180.542969 213.789062 179.207031 213.335938 177.75 C 212.863281 176.230469 212.621094 174.625 212.621094 172.980469 C 212.621094 171.148438 212.484375 169.3125 212.214844 167.523438 C 211.949219 165.773438 211.550781 164.046875 211.03125 162.386719 C 210.757812 161.503906 210.441406 160.625 210.101562 159.78125 C 209.757812 158.9375 209.378906 158.105469 208.972656 157.304688 C 208.660156 156.6875 207.863281 156.421875 207.195312 156.710938 C 206.523438 157 206.234375 157.730469 206.546875 158.347656 C 206.921875 159.089844 207.273438 159.863281 207.589844 160.644531 C 207.910156 161.429688 208.203125 162.246094 208.457031 163.066406 C 208.941406 164.617188 209.3125 166.230469 209.5625 167.863281 C 209.816406 169.539062 209.945312 171.261719 209.945312 172.980469 C 209.945312 174.855469 210.21875 176.6875 210.761719 178.429688 C 211.285156 180.121094 212.050781 181.683594 213.027344 183.066406 C 213.027344 183.070312 213.027344 183.070312 213.03125 183.070312 C 213.535156 183.785156 214.097656 184.449219 214.703125 185.046875 C 215.316406 185.652344 215.976562 186.195312 216.671875 186.660156 C 216.910156 186.816406 217.183594 186.894531 217.457031 186.894531 C 217.871094 186.894531 218.28125 186.71875 218.542969 186.386719 C 218.976562 185.832031 218.84375 185.0625 218.246094 184.664062 " fill-opacity="1" fill-rule="nonzero"/><g clip-path="url(#c26852fc2e)"><path fill="#2e2e2e" d="M 220.382812 168.910156 C 220.269531 167.585938 220.101562 166.253906 219.878906 164.953125 C 219.738281 164.109375 219.570312 163.265625 219.382812 162.4375 C 219.195312 161.617188 218.984375 160.789062 218.753906 159.984375 C 218.5625 159.324219 217.832031 158.933594 217.117188 159.105469 C 216.402344 159.28125 215.972656 159.953125 216.164062 160.613281 C 216.382812 161.378906 216.582031 162.160156 216.761719 162.941406 C 216.9375 163.730469 217.097656 164.535156 217.234375 165.335938 C 217.445312 166.574219 217.605469 167.839844 217.710938 169.097656 C 217.820312 170.378906 217.875 171.683594 217.875 172.980469 C 217.875 173.660156 218.472656 174.210938 219.214844 174.210938 C 219.953125 174.210938 220.550781 173.660156 220.550781 172.980469 C 220.550781 171.621094 220.496094 170.25 220.382812 168.910156 " fill-opacity="1" fill-rule="nonzero"/></g></svg>